General
Complete name                            : Ø§Ù„Ù…Ø­Ù‚Ù‚ ÙƒÙˆÙ†Ø§Ù† Ø§Ù„Ø¬Ø²Ø¡ Ø§Ù„Ø³Ø§Ø¨Ø¹) - Ø¬Ø±ÙŠÙ…Ø© ÙÙŠ Ø§Ù„Ø¶Ø¨Ø§Ø¨ - Ø§Ù„Ø¬Ù„Ø²Ø¡ Ø§Ù„Ø§ÙˆÙ„)[Reliable].mp4
Format                                   : MPEG-4
Format profile                           : Base Media / Version 2
Codec ID                                 : mp42
File size                                : 130 MiB
Duration                                 : 20mn 58s
Overall bit rate mode                    : Variable
Overall bit rate                         : 867 Kbps
Encoded date                             : UTC 2012-02-10 19:12:12
Tagged date                              : UTC 2012-02-10 19:12:40
Writing application                      : mp4creator 1.6.1d

Video
ID                                       : 1
Format                                   : MPEG-4 Visual
Format profile                           : Simple@L1
Format settings, BVOP                    : No
Format settings, QPel                    : No
Format settings, GMC                     : No warppoints
Format settings, Matrix                  : Default (H.263)
Codec ID                                 : 20
Duration                                 : 20mn 58s
Bit rate mode                            : Variable
Bit rate                                 : 739 Kbps
Maximum bit rate                         : 5 205 Kbps
Width                                    : 720 pixels
Height                                   : 576 pixels
Display aspect ratio                     : 4:3
Frame rate mode                          : Constant
Frame rate                               : 25.000 fps
Standard                                 : PAL
Color space                              : YUV
Chroma subsampling                       : 4:2:0
Bit depth                                : 8 bits
Scan type                                : Progressive
Compression mode                         : Lossy
Bits/(Pixel*Frame)                       : 0.071
Stream size                              : 111 MiB (85%)
Language                                 : English
Encoded date                             : UTC 2012-02-10 19:12:12
Tagged date                              : UTC 2012-02-10 19:12:38

Audio
ID                                       : 2
Format                                   : AAC
Format/Info                              : Advanced Audio Codec
Format profile                           : LC
Codec ID                                 : 40
Duration                                 : 20mn 57s
Bit rate mode                            : Variable
Bit rate                                 : 126 Kbps
Maximum bit rate                         : 321 Kbps
Channel(s)                               : 2 channels
Channel positions                        : Front: L R
Sampling rate                            : 44.1 KHz
Compression mode                         : Lossy
Stream size                              : 18.8 MiB (14%)
Language                                 : English
Encoded date                             : UTC 2012-02-10 19:12:40
Tagged date                              : UTC 2012-02-10 19:12:40
Material_Duration                        : 1258289
Material_StreamSize                      : 19752348

